# xmcd
#
# Track frame offsets:
#	150
#	13586
#	27396
#	49448
#	66121
#	87967
#	97655
#	113705
#	124438
#	136185
#	153072
#
# Disc length: 2275 seconds
#
# Revision: 0
# Processed by: cddbd v1.5.2PL0 Copyright (c) Steve Scherf et al.
# Submitted via: EasyCDDAExtractor 11.5.0.1
#
DISCID=8708e10b
DTITLE=The Tharp Brothers - I WIll Serve Thee
DYEAR=2006
DGENRE=gospel
TTITLE0=Somebody Touched Me
TTITLE1=Keep On the Firing Line
TTITLE2=Down From His Glory (Darren)
TTITLE3=Farther Along
TTITLE4=We Believe (Russell)
TTITLE5=Canaanland Is Just In Sight
TTITLE6=I'll Meet You In The Morning
TTITLE7=The Glad Reunion Day
TTITLE8=Heaven Will Surely Worth it All/What A Day That Will Be
TTITLE9=Sweet Beulah Land (Darren)
TTITLE10=I Will Serve Thee
EXTD=
EXTT0=
EXTT1=
EXTT2=
EXTT3=
EXTT4=
EXTT5=
EXTT6=
EXTT7=
EXTT8=
EXTT9=
EXTT10=
PLAYORDER=
